<svg width="43" height="43" viewBox="0 0 43 43" fill="none" xmlns="http://www.w3.org/2000/svg">
<path d="M21.2471 7.58824C23.3718 4.95765 26.1035 2.73176 29.6447 1.41647C27.2165 0.505882 24.4847 0 21.3482 0C7.08235 0 0 10.7247 0 21.4494C0 32.1741 7.08235 43 21.3482 43C24.4847 43 27.2165 42.4941 29.6447 41.5835C26.2047 40.2682 23.3718 38.1435 21.3482 35.5129C12.7482 35.5129 8.39765 28.5318 8.39765 21.6518C8.39765 14.5694 12.6471 7.68941 21.2471 7.58824Z" fill="white"/>
<path d="M37.9412 7.58824C34.5012 7.58824 31.6682 8.70118 29.6447 10.5224C32.68 13.2541 34.2988 17.4024 34.2988 21.5506C34.2988 25.6988 32.7812 29.8471 29.6447 32.4776C31.6682 34.2988 34.5012 35.4118 37.9412 35.4118C41.0776 31.4659 42.5953 26.4071 42.5953 21.4494C42.5953 16.4918 41.0776 11.5341 37.9412 7.58824Z" fill="white"/>
<path d="M24.9906 21.5505C24.9906 17.4023 26.5082 13.254 29.6447 10.5223C31.6682 8.70108 34.5012 7.58814 37.9412 7.58814C35.8165 4.95755 33.0847 2.73167 29.6447 1.41637C26.1035 2.83284 23.2706 4.95755 21.2471 7.58814C18.2118 11.534 16.6941 16.4917 16.6941 21.4493C16.6941 26.407 18.2118 31.4658 21.3482 35.4117C23.3718 38.0423 26.2047 40.167 29.6447 41.4823C33.0847 40.167 35.8165 38.0423 37.9412 35.4117C34.5012 35.4117 31.7694 34.2987 29.6447 32.4775C26.6094 29.847 24.9906 25.6987 24.9906 21.5505Z" fill="white"/>
</svg>
