<svg width="112" height="16" viewBox="0 0 112 16" fill="none" xmlns="http://www.w3.org/2000/svg">
<g clip-path="url(#clip0_43_21)">
<path d="M3.612 15.443C3.226 15.641 2.788 15.294 2.866 14.851L3.696 10.121L0.172996 6.76501C-0.156004 6.45101 0.0149962 5.87701 0.455996 5.81501L5.354 5.11901L7.538 0.792012C7.735 0.402012 8.268 0.402012 8.465 0.792012L10.649 5.11901L15.547 5.81501C15.988 5.87701 16.159 6.45101 15.829 6.76501L12.307 10.121L13.137 14.851C13.215 15.294 12.777 15.641 12.391 15.443L8 13.187L3.611 15.443H3.612Z" fill="#00973C"/>
</g>
<g clip-path="url(#clip1_43_21)">
<path d="M27.612 15.443C27.226 15.641 26.788 15.294 26.866 14.851L27.696 10.121L24.173 6.76501C23.844 6.45101 24.015 5.87701 24.456 5.81501L29.354 5.11901L31.538 0.792012C31.735 0.402012 32.268 0.402012 32.465 0.792012L34.649 5.11901L39.547 5.81501C39.988 5.87701 40.159 6.45101 39.829 6.76501L36.307 10.121L37.137 14.851C37.215 15.294 36.777 15.641 36.391 15.443L32 13.187L27.611 15.443H27.612Z" fill="#00973C"/>
</g>
<g clip-path="url(#clip2_43_21)">
<path d="M51.612 15.443C51.226 15.641 50.788 15.294 50.866 14.851L51.696 10.121L48.173 6.76501C47.844 6.45101 48.015 5.87701 48.456 5.81501L53.354 5.11901L55.538 0.792012C55.735 0.402012 56.268 0.402012 56.465 0.792012L58.649 5.11901L63.547 5.81501C63.988 5.87701 64.159 6.45101 63.829 6.76501L60.307 10.121L61.137 14.851C61.215 15.294 60.777 15.641 60.391 15.443L56 13.187L51.611 15.443H51.612Z" fill="#00973C"/>
</g>
<g clip-path="url(#clip3_43_21)">
<path d="M75.612 15.443C75.226 15.641 74.788 15.294 74.866 14.851L75.696 10.121L72.173 6.76501C71.844 6.45101 72.015 5.87701 72.456 5.81501L77.354 5.11901L79.538 0.792012C79.735 0.402012 80.268 0.402012 80.465 0.792012L82.649 5.11901L87.547 5.81501C87.988 5.87701 88.159 6.45101 87.829 6.76501L84.307 10.121L85.137 14.851C85.215 15.294 84.777 15.641 84.391 15.443L80 13.187L75.611 15.443H75.612Z" fill="#00973C"/>
</g>
<g clip-path="url(#clip4_43_21)">
<path d="M101.354 5.119L103.538 0.792C103.58 0.704954 103.645 0.631433 103.727 0.57981C103.809 0.528186 103.903 0.500533 104 0.5C104.183 0.5 104.366 0.597 104.465 0.792L106.649 5.119L111.547 5.815C111.669 5.83419 111.781 5.89491 111.863 5.98691C111.946 6.07891 111.994 6.19655 112 6.32C112.007 6.40219 111.995 6.48489 111.966 6.56194C111.936 6.63899 111.89 6.7084 111.83 6.765L108.307 10.121L109.137 14.851C109.215 15.294 108.777 15.641 108.391 15.443L104 13.187L99.611 15.443C99.5651 15.4668 99.5159 15.4837 99.465 15.493C99.123 15.553 98.797 15.239 98.865 14.851L99.695 10.121L96.173 6.765C96.1182 6.7132 96.0747 6.65069 96.0451 6.58137C96.0155 6.51204 96.0005 6.43737 96.001 6.362C96.001 6.25544 96.0304 6.15095 96.086 6.06C96.1254 5.99407 96.1791 5.93783 96.2431 5.89542C96.3072 5.85302 96.3799 5.82553 96.456 5.815L101.354 5.119ZM104 12.027C104.081 12.0267 104.16 12.0459 104.232 12.083L107.918 13.977L107.224 10.02C107.208 9.929 107.214 9.83536 107.242 9.74731C107.27 9.65926 107.32 9.57949 107.386 9.515L110.293 6.745L106.241 6.169C106.157 6.15633 106.078 6.12351 106.009 6.07335C105.941 6.02319 105.885 5.95719 105.848 5.881L104.001 2.223L104 2.226V12.026V12.027Z" fill="#00973C"/>
</g>
<defs>
<clipPath id="clip0_43_21">
<rect width="16" height="16" fill="white"/>
</clipPath>
<clipPath id="clip1_43_21">
<rect width="16" height="16" fill="white" transform="translate(24)"/>
</clipPath>
<clipPath id="clip2_43_21">
<rect width="16" height="16" fill="white" transform="translate(48)"/>
</clipPath>
<clipPath id="clip3_43_21">
<rect width="16" height="16" fill="white" transform="translate(72)"/>
</clipPath>
<clipPath id="clip4_43_21">
<rect width="16" height="16" fill="white" transform="translate(96)"/>
</clipPath>
</defs>
</svg>
