<svg width="12" height="15" viewBox="0 0 12 15" fill="none" xmlns="http://www.w3.org/2000/svg">
<path d="M10.2427 10.2426L6 14.4853L1.75734 10.2426C0.918228 9.4035 0.346791 8.3344 0.115286 7.17051C-0.11622 6.00663 0.00260456 4.80023 0.456732 3.70388C0.91086 2.60753 1.6799 1.67046 2.66659 1.01118C3.65328 0.351892 4.81332 0 6 0C7.18669 0 8.34672 0.351892 9.33342 1.01118C10.3201 1.67046 11.0891 2.60753 11.5433 3.70388C11.9974 4.80023 12.1162 6.00663 11.8847 7.17051C11.6532 8.3344 11.0818 9.4035 10.2427 10.2426ZM6 8.66661C6.70725 8.66661 7.38552 8.38566 7.88562 7.88557C8.38572 7.38547 8.66667 6.70719 8.66667 5.99995C8.66667 5.2927 8.38572 4.61443 7.88562 4.11433C7.38552 3.61423 6.70725 3.33328 6 3.33328C5.29276 3.33328 4.61448 3.61423 4.11438 4.11433C3.61429 4.61443 3.33334 5.2927 3.33334 5.99995C3.33334 6.70719 3.61429 7.38547 4.11438 7.88557C4.61448 8.38566 5.29276 8.66661 6 8.66661ZM6 7.33328C5.64638 7.33328 5.30724 7.19281 5.05719 6.94276C4.80715 6.69271 4.66667 6.35357 4.66667 5.99995C4.66667 5.64633 4.80715 5.30719 5.05719 5.05714C5.30724 4.80709 5.64638 4.66661 6 4.66661C6.35362 4.66661 6.69276 4.80709 6.94281 5.05714C7.19286 5.30719 7.33334 5.64633 7.33334 5.99995C7.33334 6.35357 7.19286 6.69271 6.94281 6.94276C6.69276 7.19281 6.35362 7.33328 6 7.33328Z" fill="white"/>
</svg>
