<svg width="32" height="32" viewBox="0 0 32 32" fill="none" xmlns="http://www.w3.org/2000/svg">
<path fill-rule="evenodd" clip-rule="evenodd" d="M8.53385 2.90976C9.82039 2.80704 11.0417 2.30102 12.0239 1.46374C13.1332 0.51891 14.5428 0 16 0C17.4571 0 18.8667 0.51891 19.976 1.46374C20.9582 2.30102 22.1795 2.80704 23.4661 2.90976C24.919 3.02588 26.283 3.6557 27.3136 4.68632C28.3442 5.71694 28.9741 7.08097 29.0902 8.53385C29.1922 9.81987 29.6982 11.0419 30.5362 12.0239C31.481 13.1332 31.9999 14.5428 31.9999 16C31.9999 17.4571 31.481 18.8667 30.5362 19.976C29.6989 20.9582 29.1929 22.1795 29.0902 23.4661C28.9741 24.919 28.3442 26.283 27.3136 27.3136C26.283 28.3442 24.919 28.9741 23.4661 29.0902C22.1795 29.1929 20.9582 29.6989 19.976 30.5362C18.8667 31.481 17.4571 31.9999 16 31.9999C14.5428 31.9999 13.1332 31.481 12.0239 30.5362C11.0417 29.6989 9.82039 29.1929 8.53385 29.0902C7.08097 28.9741 5.71694 28.3442 4.68632 27.3136C3.6557 26.283 3.02588 24.919 2.90976 23.4661C2.80704 22.1795 2.30102 20.9582 1.46374 19.976C0.51891 18.8667 0 17.4571 0 16C0 14.5428 0.51891 13.1332 1.46374 12.0239C2.30102 11.0417 2.80704 9.82039 2.90976 8.53385C3.02588 7.08097 3.6557 5.71694 4.68632 4.68632C5.71694 3.6557 7.08097 3.02588 8.53385 2.90976ZM23.4141 13.4139C23.7784 13.0367 23.98 12.5315 23.9754 12.0071C23.9709 11.4827 23.7605 10.9811 23.3897 10.6102C23.0189 10.2394 22.5173 10.0291 21.9929 10.0245C21.4685 10.02 20.9632 10.2216 20.586 10.5859L13.9999 17.172L11.4139 14.5859C11.0367 14.2216 10.5315 14.02 10.0071 14.0246C9.48267 14.0291 8.98104 14.2395 8.61021 14.6103C8.23939 14.9811 8.02905 15.4828 8.02449 16.0072C8.01994 16.5316 8.22153 17.0368 8.58585 17.414L12.5859 21.414C12.961 21.789 13.4696 21.9996 13.9999 21.9996C14.5303 21.9996 15.0389 21.789 15.414 21.414L23.4141 13.4139Z" fill="#1E1A3A"/>
</svg>
