<svg width="14" height="12" viewBox="0 0 14 12" fill="none" xmlns="http://www.w3.org/2000/svg">
<path d="M13.9993 1.35127C13.475 1.5832 12.9189 1.73552 12.3496 1.80319C12.9497 1.44429 13.3988 0.87944 13.6133 0.213908C13.0501 0.549073 12.4327 0.783963 11.7891 0.911023C11.3569 0.448509 10.7839 0.141767 10.1593 0.0384854C9.53472 -0.0647965 8.8935 0.0411683 8.33535 0.339906C7.77719 0.638644 7.33337 1.11342 7.07288 1.69041C6.81239 2.26741 6.74983 2.91431 6.89492 3.53053C5.75282 3.47329 4.63553 3.17649 3.61558 2.65942C2.59563 2.14235 1.69583 1.41655 0.974588 0.529155C0.719293 0.967651 0.585134 1.46612 0.585852 1.97352C0.585852 2.9694 1.09272 3.84921 1.86332 4.36432C1.40729 4.34996 0.961286 4.22681 0.5625 4.00512V4.04083C0.562638 4.70409 0.792149 5.34689 1.21212 5.86024C1.63209 6.3736 2.21668 6.72591 2.86676 6.85745C2.44342 6.97218 1.99952 6.98909 1.56868 6.9069C1.75197 7.47781 2.10921 7.97709 2.59038 8.33486C3.07155 8.69263 3.65256 8.89097 4.25206 8.9021C3.65624 9.37004 2.97402 9.71596 2.24442 9.92007C1.51482 10.1242 0.752148 10.1825 0 10.0917C1.31298 10.936 2.84141 11.3843 4.40247 11.3829C9.68613 11.3829 12.5756 7.0058 12.5756 3.20979C12.5756 3.08616 12.5721 2.96116 12.5666 2.83891C13.129 2.43243 13.6144 1.92889 14 1.35196L13.9993 1.35127Z" fill="white"/>
</svg>
