<svg width="202" height="162" viewBox="0 0 202 162" fill="none" xmlns="http://www.w3.org/2000/svg">
<path fill-rule="evenodd" clip-rule="evenodd" d="M116.125 162C140.279 162 161.475 144.033 149.571 119.629C137.667 95.2253 181.898 96.0135 194.891 79.1472C210.736 58.5781 206.147 -28.7348 104.428 24.4954C88.1333 33.0222 46.2861 15.7233 32.4052 24.3067C16.066 34.4103 -6.92234 55.0991 16.066 76.2918C27.3896 86.731 -13.2082 113.826 4.57285 138.096C21.9227 161.778 34.0846 139.203 60.4994 144.033C86.9143 148.863 98.1859 162 116.125 162Z" fill="#52BFEE"/>
<path d="M88.0896 119.544C88.0896 119.544 93.6511 116.928 95.7274 115.108C97.8036 113.288 100.385 108.766 100.385 108.766C100.385 108.766 128.739 129.243 147.226 126.322C151.486 125.649 159.786 122.818 160.315 117.829C161.761 104.207 141.764 100.726 146.132 93.8175C148.798 89.6007 157.081 95.8765 157.081 95.8765L191.436 112.775C191.436 112.775 179.567 142.031 150.765 143.204C115.334 144.646 88.0896 119.544 88.0896 119.544Z" fill="white"/>
<path fill-rule="evenodd" clip-rule="evenodd" d="M60.8518 4.96929C60.5293 4.8427 58.7977 2.72237 56.5993 2.33646C55.6003 2.16109 56.507 3.43315 55.4075 3.44459C52.133 3.47868 46.8117 2.8635 45.8259 3.44459C45.0932 3.8751 46.7068 5.37906 45.8259 5.44811C37.5149 6.09954 24.836 14.3977 22.0851 18.4236C21.2097 19.7048 28.29 17.5311 27.1619 18.1645C25.8958 18.8754 24.4915 23.5303 23.6519 27.1255C23.0707 29.6012 22.7047 32.7874 22.5755 36.2534C22.4679 39.2458 22.5109 39.741 22.9415 41.3771C23.4366 43.207 23.8242 43.7452 24.4915 43.4869C24.7283 43.4007 24.836 43.0778 24.836 42.475C24.836 42.0014 25.0943 40.5806 25.4172 39.3104L25.977 37.0284L26.2138 37.9757C26.5152 39.0736 28.2805 42.475 29.8735 44.9508C29.9595 45.0822 30.3291 44.915 30.6625 44.1093C30.9662 43.3751 30.843 42.2021 31.359 40.945C32.5344 38.0814 34.8425 34.3583 37.5149 31.3781C41.4646 26.9735 42.775 21.8761 46.4775 17.7843C53.3869 10.1482 62.0588 5.44317 60.8518 4.96929Z" fill="white"/>
<path fill-rule="evenodd" clip-rule="evenodd" d="M27.2602 19.2035C26.1518 20.0948 24.5065 27.3241 24.4783 27.445C23.8971 29.9207 23.3368 38.518 23.9095 40.1457C24.4822 41.7734 26.0859 35.9059 26.0859 35.9059C26.0859 35.9059 28.5099 42.2002 30.6517 43.926C30.7432 43.9997 28.1059 36.1386 27.2602 31.5494C26.1438 25.4915 27.891 18.6962 27.2602 19.2035Z" fill="#E7EAEE"/>
<path fill-rule="evenodd" clip-rule="evenodd" d="M68.5725 145.815C70.6392 145.363 74.1263 143.789 75.4615 143.25C76.7966 142.712 80.865 136.967 82.3289 130.487C83.3838 125.708 83.922 118.905 83.3192 117.764C83.2302 117.602 82.9046 114.508 83.7715 115.519C85.6983 117.764 87.9855 121.289 95.2025 114.973C97.1682 113.252 99.7736 111.032 99.0876 109.069C97.1682 103.577 88.8481 92.519 87.5797 91.6813C86.0631 90.6797 78.3978 91.5308 66.9903 88.1639C54.0534 84.3455 48.6664 73.1015 43.6038 74.5651C39.5096 75.7488 29.7002 83.0229 27.2384 87.6293C15.616 109.376 29.7002 124.614 32.9077 128.991L36.022 130.336L36.1296 133.113L36.2803 134.857C36.5602 138.194 36.6678 138.495 38.1748 139.615C41.9422 142.478 49.3694 145.148 56.0862 146.095C59.2078 146.525 65.9891 146.375 68.5725 145.815Z" fill="white"/>
<path fill-rule="evenodd" clip-rule="evenodd" d="M37.2466 132.097L37.3973 133.841C37.6772 137.177 37.7848 137.479 39.2918 138.598C41.5143 140.287 45.0105 141.909 48.8831 143.15C51.575 144.012 54.4488 144.69 57.2032 145.078C60.3247 145.509 67.1061 145.358 69.6895 144.798C70.9664 144.522 60.4629 136.27 54.2753 138.598C49.5235 140.386 38.3235 126.747 42.8773 123.184C47.9856 119.187 38.6249 103.421 38.3235 99.9979C38.0221 96.5751 36.8352 95.7573 36.8006 95.8773C36.7659 95.9974 36.7659 96.4069 36.8591 97.3936C37.2607 101.647 37.2466 132.097 37.2466 132.097Z" fill="#E7EAEE"/>
<path fill-rule="evenodd" clip-rule="evenodd" d="M36.1252 99.0207C36.5771 98.9328 37.0148 99.2278 37.1028 99.6798C38.7276 108.027 45.6003 113.678 57.8896 116.633C70.252 119.606 78.6727 119.446 83.1096 116.273C83.4841 116.005 83.2049 118.299 82.9306 118.475C80.0367 120.33 70.1979 123.099 58.4567 120.597C43.4443 117.397 36.3956 104.774 35.4661 99.9984C35.3781 99.5464 35.6732 99.1087 36.1252 99.0207Z" fill="#432779"/>
<path fill-rule="evenodd" clip-rule="evenodd" d="M29.8652 83.9601C30.2649 83.7314 45.1755 100.82 65.638 104.688C86.1004 108.557 91.0548 106.096 91.8512 100.82C91.9199 100.365 92.3447 100.052 92.8 100.12C93.2553 100.189 93.5686 100.614 93.4999 101.069C92.4906 107.756 83.0222 109.346 65.3575 106.332C47.9147 103.356 35.9559 96.2837 29.5556 85.0978C29.327 84.6981 29.4656 84.1888 29.8652 83.9601Z" fill="#432779"/>
<path fill-rule="evenodd" clip-rule="evenodd" d="M115.749 83.0125C115.19 82.8187 114.587 82.3881 114.199 81.893L113.554 81.0965L115.835 78.836C119.345 75.3915 122.036 71.8609 124.361 67.6629C125.136 66.2636 127.095 61.592 127.095 61.1399C127.095 60.9892 127.331 60.3864 127.611 59.7621C128.042 58.8579 128.365 58.5135 129.291 57.9968C130.388 57.351 131.637 57.1357 132.175 57.5017C133.209 58.1906 133.209 60.3649 132.175 64.1108C131.034 68.2227 129.506 71.172 126.341 75.413C125.846 76.0589 124.92 77.329 124.253 78.2117C122.466 80.5798 121.304 81.7208 119.732 82.6034C118.182 83.4645 117.278 83.5722 115.749 83.0125ZM131.207 81.0749L132.757 81.7638C133.078 81.9122 136.624 83.6158 140.883 85.6623C147.749 88.9617 156.47 93.1522 156.524 93.1522C156.61 93.1522 157.014 92.2181 157.105 91.1286C157.32 88.782 158.117 85.5958 159.042 83.3784C159.473 82.3881 159.817 81.1505 159.817 81.0428C159.817 80.9937 159.467 80.8525 158.894 80.6214C158.212 80.3463 157.214 79.9438 156.115 79.4173C150.689 76.8124 140.076 71.4949 138.763 70.6984C137.471 69.9449 137.213 69.8803 137.213 70.3755C137.213 71.0213 135.9 74.0137 134.888 75.6283C134.35 76.511 133.295 78.1041 132.541 79.1589L131.207 81.0749ZM156.158 89.2771C156.775 89.6349 155.706 90.1598 155.447 90.2459C153.926 90.3751 152.135 90.089 150.668 89.2341C149.901 88.69 143.86 85.334 139.853 83.1077C138.021 82.09 136.614 81.3084 136.33 81.1395C135.426 80.6013 134.565 80.0201 134.414 79.8478C133.962 79.2666 134.393 79.0082 135.663 79.1159C136.426 79.1806 154.824 88.5043 156.158 89.2771ZM74.5255 143.494L74.5257 143.494L74.528 143.493L74.5284 143.493C74.9286 143.324 75.2731 143.178 75.5349 143.073C76.8701 142.535 80.9384 136.79 82.4024 130.31C83.4572 125.53 83.9954 118.728 83.3926 117.587C83.0292 116.926 85.1885 119.143 86.7964 120.793C87.2839 121.294 87.7207 121.742 88.0212 122.043C97.4074 131.365 111.379 138.856 125.889 142.365C133.123 144.131 138.268 144.755 145.178 144.755C156.782 144.755 165.931 142.473 174.241 137.457C174.629 137.223 174.993 137.008 175.339 136.802L175.344 136.799L175.358 136.791L175.358 136.791C178.255 135.076 179.981 134.054 184.704 128.738C190.002 122.775 194.714 108.932 196.286 104.153C196.975 102 198.654 93.4376 198.654 91.3008C198.654 88.771 197.771 87.5764 196.566 86.3493C194.435 84.2611 191.55 83.5076 189.16 84.4118L188.041 84.8423L187.696 83.7014C187.201 81.9791 186.168 80.6013 184.575 79.568C182.207 77.9964 181.862 77.8888 179.731 77.8888C178.073 77.8888 177.621 77.9749 176.566 78.47L175.339 79.0298L175.081 78.2547C174.586 76.6617 172.925 74.4409 171.636 73.7984C170.494 73.2287 168.515 73.1765 167.137 73.4325C164.123 73.9922 161.97 75.3915 161.088 77.3506C160.829 77.9534 160.506 78.427 160.377 78.427C160.269 78.427 156.028 77.2425 150.969 75.0036C150.118 74.6254 149.317 74.2706 148.566 73.9375L148.561 73.9357C139.477 69.909 137.508 69.0362 137.687 67.9428C137.837 67.0171 137.794 66.5004 137.536 65.7039C137.084 64.3691 136.567 64.0031 135.103 64.0031C133.941 64.0031 133.941 64.0031 134.07 63.4219C134.759 60.1281 134.737 58.2336 134.005 57.028C133.51 56.2315 132.929 55.9086 131.594 55.7148C130.819 55.6072 130.453 55.6718 129.592 56.1454C129.011 56.4468 128.516 56.6621 128.472 56.619C128.429 56.576 128.58 55.3919 128.817 53.9926C130.582 43.6376 129.218 34.7157 124.719 25.2433C124.676 25.1527 124.626 25.0455 124.569 24.9228C123.201 21.9862 117.701 10.1779 101.971 4.21962C101.26 3.9503 100.588 3.68987 99.9409 3.43957L99.9383 3.43858L99.9382 3.43853C94.5801 1.36456 91.0181 -0.0141976 82.4239 0.000110309C72.7911 0.0161472 69.5285 1.37791 63.1778 4.2842C62.2951 4.69324 61.5201 4.93004 61.4555 4.84393C61.3909 4.73629 60.9819 4.47796 60.5729 4.26267C60.1638 4.04739 59.2812 3.50919 58.6353 3.07863C56.7839 1.83 55.6429 1.31332 55.0617 1.44249C54.3943 1.61472 54.3943 2.17445 55.0617 2.43279C55.3415 2.54043 55.6645 2.9064 55.7936 3.27238C56.0735 4.04739 56.3964 4.13351 56.5902 3.48766C56.6763 3.25085 56.8054 3.07863 56.87 3.12168C56.8945 3.1339 56.9761 3.17212 57.1007 3.23043L57.1015 3.23081L57.1016 3.23085C57.4162 3.37815 58.0037 3.65318 58.6353 3.96128C59.518 4.39184 60.4867 4.84393 60.7451 4.95157C61.2187 5.1238 61.068 5.25297 59.0228 6.45854C51.0359 11.1517 44.5344 18.4497 40.8962 26.7595C40.3365 28.0082 39.8413 28.7832 39.3246 29.2137C38.0114 30.3117 35.428 33.4332 34.8253 34.6603C34.5023 35.3277 33.8134 36.3611 33.2752 36.9639C32.7586 37.5666 32.1988 38.3417 32.0051 38.6646C31.8329 39.009 31.6606 39.2458 31.596 39.2028C31.553 39.1382 31.6176 38.0833 31.7683 36.8562C32.0912 33.993 32.0912 33.2395 31.8329 33.1749C31.4453 33.0673 30.8856 34.5742 30.6488 36.4472C30.4766 37.5882 30.4335 39.3104 30.5412 41.0757L30.6703 43.8744L29.1418 41.3986C28.6154 40.5695 28.097 39.7404 27.7293 39.1522L27.7292 39.1521C27.4955 38.7782 27.3227 38.5018 27.2474 38.3847C26.6876 37.5666 26.3647 36.3395 26.6015 35.9305C26.7307 35.6937 26.7092 35.5861 26.4939 35.5861C26.0418 35.5861 25.1591 37.0284 24.5779 38.6861C24.298 39.4611 24.0182 40.107 23.932 40.107C23.6091 40.107 23.7598 32.3999 24.1043 29.9242C24.8147 25.0373 26.6876 19.0094 27.5272 19.0094C27.6995 19.0094 27.8502 18.9233 27.8502 18.7941C27.8502 18.4066 27.2904 18.5573 26.8383 19.0525C25.8265 20.1504 24.4918 23.5303 23.6522 27.1255C23.0709 29.6012 22.7049 32.7874 22.5758 36.2534C22.4681 39.2458 22.5112 39.741 22.9417 41.3771C23.4369 43.207 23.8244 43.7452 24.4918 43.4869C24.7286 43.4008 24.8362 43.0778 24.8362 42.475C24.8362 42.0014 25.0946 40.5806 25.4175 39.3104L25.9772 37.0284L26.214 37.9757C26.5154 39.0736 28.2807 42.475 29.8738 44.9508C30.9717 46.63 30.9933 46.7376 31.3592 49.364C31.553 50.8495 32.1558 54.4626 33.5551 60.0204C34.7915 64.9312 41.7421 69.8026 43.4776 71.019C43.7064 71.1793 43.8445 71.2761 43.8671 71.3012C44.0823 71.538 44.3837 71.6671 44.556 71.6026C44.7497 71.538 44.8574 71.6241 44.8574 71.8609C44.8574 72.0762 45.008 72.3561 45.1803 72.4852C45.3956 72.6359 45.5462 73.2172 45.5893 74.229C45.6969 76.2526 47.2039 80.1277 48.3664 81.3979C49.1199 82.2159 50.6915 82.5604 52.4352 82.259C53.5762 82.0867 53.8991 81.9576 53.7915 81.6993C53.7269 81.527 54.136 81.7423 54.6957 82.1729C61.2402 87.1674 67.8709 90.1598 75.3196 91.4515C78.2044 91.9466 82.9836 92.2265 85.5885 92.0327C87.892 91.882 87.892 91.882 87.7844 92.3341C87.6337 92.9369 87.8274 93.3029 90.9921 98.6634C93.5109 102.904 93.7261 103.184 96.5248 106.048C102.467 112.183 108.946 116.941 116.288 120.622C123.198 124.067 134.231 126.93 144.317 127.834C154.403 128.738 161.647 119.481 161.626 117.113C161.583 113.862 161.131 111.731 160.033 109.664C158.956 107.662 158.246 106.973 155.017 104.82C151.421 102.431 149.204 100.472 147.74 98.3835C146.814 97.0703 146.47 95.5849 146.47 94.7883C146.47 94.2717 147.137 93.1091 148.128 92.8723C149.032 92.6355 149.204 92.6571 150.216 93.1522C150.819 93.4321 152.39 94.164 153.682 94.7883C154.995 95.3911 156.265 95.9939 156.524 96.1231C157.285 96.3347 157.607 97.8255 157.782 98.6334L157.782 98.6338C157.821 98.8142 157.852 98.9605 157.88 99.0509C158.181 100.17 159.608 101.616 160.528 102.108C162.144 102.972 166.126 103.088 167.223 101.904C167.503 101.602 168.431 101.232 168.622 101.344C168.814 101.456 169.505 102.388 169.505 103.141C169.527 104.433 170.194 105.617 171.615 106.801C174.306 109.04 176.394 109.578 178.504 108.588C179.602 108.071 180.502 107.869 180.502 107.869C180.502 107.869 181.399 109.014 181.453 109.406C181.876 112.465 186.404 113.747 187.61 113.876C187.886 113.904 188.424 113.786 188.97 113.665C189.7 113.505 190.446 113.341 190.603 113.518C190.91 113.865 185.457 122.883 184.704 124.023C177.535 134.788 163.585 141.375 146.513 142.064C135.426 142.516 121.799 139.416 109.98 133.776C102.423 130.137 95.7282 125.681 88.5594 119.438C87.3108 118.362 85.8684 117.134 85.3517 116.704C84.835 116.295 83.6079 114.896 82.6607 113.604C81.0676 111.451 80.1634 110.676 80.1634 111.408C80.1634 111.731 81.1968 113.712 82.3808 115.671C82.8544 116.446 83.1558 116.984 83.0482 116.898C82.9406 116.812 82.5961 118.362 82.2732 120.342C81.2183 126.693 79.4745 132.958 77.7092 136.854C76.7405 138.964 74.8829 140.54 74.3232 140.97C72.2565 142.542 69.1626 143.248 64.8785 143.679C59.4534 144.217 51.4665 143.011 45.374 140.729C43.7594 140.127 39.6045 138.383 39.3246 138.189C39.3078 138.172 39.2124 137.553 39.0793 136.688L39.0785 136.683C39.0412 136.441 39.001 136.18 38.9587 135.907C38.1836 130.59 37.1072 110.116 37.1072 100.644C37.1072 96.7259 37.0642 95.8647 36.8058 95.8647C36.2676 95.8647 36.0524 96.3814 35.8155 98.2328C35.2773 102.452 35.385 124.476 35.9662 129.104L36.0954 130.159L35.3635 129.75C34.244 129.104 29.9814 124.777 28.496 122.775C27.2385 121.063 26.491 118.871 25.9318 117.231C25.8018 116.85 25.6819 116.498 25.5682 116.189C22.4466 107.535 23.5445 97.8238 27.8502 89.0834C31.5099 81.6347 36.0093 77.5013 42.5969 75.4992C43.6733 75.1762 44.6205 74.8318 44.7282 74.7457C45.1372 74.3582 42.5108 74.5519 41.0684 75.004C36.3753 76.4464 31.4669 80.386 28.13 85.4236C23.4369 92.4848 21.3271 102.904 22.8126 111.796C23.157 113.905 24.5564 118.469 24.9439 118.792C24.9782 118.826 25.1552 119.198 25.423 119.76L25.423 119.76L25.4231 119.76L25.4231 119.76L25.4232 119.76C26.1636 121.313 27.5976 124.322 28.6252 125.681C29.8738 127.382 33.6412 131.085 35.2128 132.226L36.2031 132.936L36.3538 134.68C36.6336 138.017 36.7413 138.318 38.2482 139.438C42.0156 142.301 49.4428 144.97 56.1596 145.918C59.2812 146.348 66.0625 146.197 68.6459 145.638C70.306 145.275 72.8826 144.187 74.5242 143.495L74.5253 143.494L74.5255 143.494ZM141.411 125.423C128.903 124.325 113.79 118.361 102.854 109.147C98.247 105.251 92.2622 97.6731 89.8941 93.4751C89.399 92.614 89.033 92.205 88.6024 92.0973C88.1504 91.9681 88.5379 91.839 90.3893 91.5376C98.204 90.2028 105.803 86.9521 111.939 82.3236L112.843 81.6562L113.101 82.2805C113.683 83.6798 115.922 85.1007 117.579 85.1007C118.247 85.1007 120.486 84.0889 121.842 83.1632L122.768 82.5388L123.521 83.2923C124.21 83.9812 124.339 84.0243 125.631 84.0243C127.116 84.0243 128.903 83.3569 129.893 82.4097L130.432 81.9145L131.96 82.9263C132.778 83.5076 135.06 84.7778 137.019 85.7896C139.947 87.2966 143.047 89.0403 145.996 90.8487L146.47 91.1501L146.018 91.7529C145.544 92.3987 144.662 93.6258 144.662 95.4988C144.662 97.6085 146.856 101.399 151.055 104.002C154.355 106.048 160.033 110.07 159.817 115.95C159.791 116.661 158.999 118.426 157.944 120.019C157.256 121.031 155.34 122.538 153.596 123.421C150.625 124.906 145.394 125.767 141.411 125.423ZM26.6231 28.7832C27.2043 28.9123 27.5918 29.1061 27.5057 29.1922C27.2258 29.4721 25.7404 29.3429 25.396 28.9985C24.8577 28.4818 24.9869 28.1158 25.7404 27.9651C26.1279 27.9005 26.7092 27.5776 27.0321 27.2547C27.355 26.9318 27.6349 26.7811 27.6349 26.8887C27.6349 27.1686 26.5585 28.1589 26.0203 28.3741C25.6758 28.5248 25.7835 28.5894 26.6231 28.7832ZM35.1912 29.1276C35.8155 28.7832 35.6864 28.5464 34.9544 28.654C34.2225 28.7617 34.1794 28.6755 34.653 27.9436C34.8468 27.6637 34.9544 27.2547 34.9114 27.0394C34.8468 26.7595 34.6961 26.8887 34.3516 27.5776C34.0933 28.0728 33.7273 28.4818 33.5551 28.4818C33.0169 28.4818 32.9738 28.9123 33.4905 29.1061C34.1579 29.386 34.6746 29.386 35.1912 29.1276ZM27.7425 17.3733C27.2258 17.4594 25.6112 18.1052 24.1904 18.8157C22.748 19.5046 21.5209 20.0858 21.4348 20.0643C19.2389 19.8275 22.2959 16.1677 27.8502 12.4218C33.1676 8.82663 36.7628 6.93216 40.0996 5.96339C42.1879 5.36061 44.5344 5.27449 45.2018 5.76964C45.5678 6.04951 45.4386 6.07103 43.8455 6.09256C40.401 6.09256 36.4183 7.85787 29.9384 12.185C26.58 14.4239 22.6834 17.6316 22.6834 18.1483C22.6834 18.2559 23.3077 18.0407 24.0827 17.6962C25.7404 16.9427 27.4411 16.5552 28.1946 16.7274C28.9911 16.9427 28.8189 17.2226 27.7425 17.3733ZM36.0739 19.2247C38.0975 18.8157 38.1836 18.7941 38.1836 18.5789C38.1836 18.4712 37.4086 18.3636 36.4399 18.3205L34.6961 18.2559L36.3107 16.4261C37.1933 15.4142 38.2267 14.4024 38.5927 14.1656C39.3892 13.6489 39.4323 13.2829 38.7864 13.0677L38.2913 12.917L38.8295 12.7232C39.1309 12.6156 39.6906 12.5725 40.0781 12.6371C40.6594 12.7232 40.7885 12.6802 40.724 12.3788C40.6594 12.0774 40.4226 12.0128 39.3677 12.0343C36.2892 12.0774 34.976 12.8954 37.3871 13.2829C38.0545 13.3906 38.6142 13.5628 38.6142 13.6705C38.6142 13.7566 38.5066 13.8427 38.3774 13.8427C37.9684 13.8427 34.5023 17.3518 34.0718 18.2129C33.4044 19.483 33.7704 19.6768 36.0739 19.2247ZM50.2824 10.8718C49.6581 10.9149 49.5074 11.0225 49.5505 11.3239L49.5571 11.3677C49.5813 11.527 49.5952 11.6185 49.5595 11.6462C49.5113 11.6837 49.3728 11.6052 49.0472 11.4205L48.9907 11.3885C48.5817 11.1732 48.5387 11.0656 48.7755 10.8933C48.9262 10.7642 49.3352 10.5704 49.6581 10.5058L50.2609 10.3551L49.8088 9.88151C49.572 9.60164 49.4428 9.3433 49.5074 9.25719C49.6796 9.08497 51.7894 9.32178 52.0908 9.55858C52.22 9.66623 52.4137 9.6447 52.5429 9.51553C52.8443 9.21414 53.2533 9.45094 53.2533 9.92456C53.2533 10.1829 53.1887 10.2044 52.995 10.0107C52.8227 9.83845 52.6721 9.83845 52.4783 9.98915C52.3061 10.1398 52.1769 10.1398 52.0693 9.96762C52.0047 9.85998 51.5956 9.75234 51.1651 9.75234C50.7679 9.75234 50.5801 9.75234 50.5417 9.82804C50.5073 9.89593 50.5932 10.0247 50.7561 10.269C51.0994 10.8056 51.0791 10.8072 50.2898 10.8712L50.2824 10.8718ZM47.0102 5.14533C47.0102 4.86546 46.7518 4.37031 46.4289 4.04739L45.8261 3.44461L49.0553 3.57377C50.8422 3.65989 52.8658 3.85364 53.5762 4.04739C54.2867 4.21962 55.1047 4.34879 55.4061 4.34879C55.8582 4.34879 55.7721 4.26267 54.9325 3.81058C53.4686 3.0571 51.5956 2.69112 48.0005 2.43279C43.6948 2.13139 41.5205 2.54043 41.9295 3.61683C41.9941 3.83211 42.3386 3.93975 42.8552 3.93975C43.9101 3.93975 45.6324 4.56407 46.2136 5.14533C46.8379 5.76964 47.0102 5.76964 47.0102 5.14533ZM36.5045 62.1517C38.2482 64.3907 40.5517 66.931 41.6281 67.7921C42.274 68.3088 42.8337 68.7393 42.8768 68.7393C42.8983 68.7393 42.4247 67.749 41.8219 66.5435C39.3892 61.6996 37.9684 56.8773 37.301 51.3231C37.1503 50.096 36.9135 49.0626 36.6551 48.6321C36.1385 47.771 36.1385 46.6515 36.6767 45.5966C36.9565 45.0369 37.1072 44.3265 37.1072 43.5515V42.3674L36.0739 43.4438C35.0621 44.4987 34.0933 44.9293 34.0933 44.2834C34.0933 43.8098 35.6864 41.5278 36.526 40.8174C37.1934 40.2577 37.2795 40.0639 37.4947 38.3847C37.6454 37.3729 37.9899 35.5861 38.2698 34.402C38.5711 33.218 38.7434 32.2061 38.7003 32.1631C38.5496 32.0124 33.4905 37.8227 32.8016 39.6764C32.6504 40.0834 32.2419 40.7959 31.919 41.2264L31.3592 41.9451C31.3592 41.9451 31.5331 42.9514 31.7252 44.2162C31.9193 45.4939 32.0104 46.3723 32.0915 47.1547C32.2 48.2013 32.2907 49.076 32.5863 50.505C32.9308 52.2703 33.2752 53.7988 33.3614 53.9065C33.4259 54.0356 33.7058 55.0259 33.9857 56.1239C34.5885 58.5565 35.6003 60.9677 36.5045 62.1517ZM123.865 82.5173L123.413 82.0652C123.413 82.0652 130.917 72.5319 132.261 69.0192C133.288 66.3385 133.891 65.5783 134.706 65.5783C135.162 65.5783 135.534 65.6823 135.706 65.9407C136.007 66.3928 136.298 66.9525 135.91 68.8685C135.264 71.9685 134.274 74.0137 131.303 78.427C130.614 79.4388 129.732 80.5583 129.344 80.9458C128.44 81.7854 126.406 82.6465 125.222 82.8402C124.468 82.9479 124.253 82.9048 123.865 82.5173Z" fill="#00160A"/>
<path d="M183.477 103.577C186.155 96.2799 185.75 94.7251 185.285 94.573C185.285 94.573 184.262 95.1543 183.81 96.3814C182.971 98.6849 180.097 104.713 179.021 105.789C177.75 107.059 177.75 107.059 176.459 107.059C175.167 107.059 171.442 105.114 170.934 103.197C170.123 100.129 173.617 89.4709 173.703 88.8681L173.122 88.4591C172.734 88.825 167.694 104.11 161.066 100.127C160.307 99.6713 158.698 97.5224 158.569 96.3814C157.852 93.0661 161.143 81.4732 161.703 79.092C162.204 76.9606 164.812 74.9825 168.02 74.9825C172.95 74.9825 172.287 79.2919 174.496 80.8104C175.474 81.4833 177.082 80.2633 177.578 80.1707C180.355 79.6541 181.419 80.2557 183.455 81.8715C185.027 83.1187 186.19 85.5872 187.469 86.457C188.18 86.9401 188.935 86.2796 189.182 86.1556C190.195 85.6471 192.368 86.0264 192.971 86.457C193.854 86.8423 196.02 88.9238 196.362 90.1345C197.912 95.6216 193.016 107.786 191.168 110.068C188.109 113.846 180.799 110.875 183.477 103.577Z" fill="white"/>
<path fill-rule="evenodd" clip-rule="evenodd" d="M59.7119 83.5819C65.6106 87.3063 71.6929 89.739 78.625 90.4064C84.0931 90.923 91.4659 90.2126 96.7618 88.4904C101.218 87.048 107.246 83.0523 111.272 79.6724C119.086 73.1278 124.016 62.9052 126.169 52.0551C126.471 50.5266 126.93 46.6844 126.909 42.8739C126.909 38.4391 124.957 26.3201 119.043 19.3323C106.847 4.92007 86.7977 -1.57225 69.9481 3.97502C63.8699 5.9761 57.3983 9.60164 52.5114 14.3378C46.3544 20.3442 41.8119 28.5248 40.0036 36.8777C38.1091 45.7043 40.5735 56.253 44.8576 64.9073C48.2805 71.7963 53.9209 79.9006 59.7119 83.5819ZM117.192 57.5662C113.145 69.7296 102.596 78.8145 89.3346 81.5701C87.311 81.9791 85.9116 82.1298 83.0699 82.1729C81.0678 82.2374 79.0657 82.2159 78.6567 82.1729C69.3781 81.0534 62.3168 77.6304 55.8154 71.1289C52.9736 68.2657 51.7681 66.7157 50.0028 63.6587C47.2256 58.8149 45.7402 53.8634 45.2881 47.9001C43.7381 27.47 58.3557 10.4412 78.9365 8.67594C87.0096 7.98704 95.9653 10.4628 102.768 15.2851C105.287 17.0719 109.851 21.5928 111.272 23.7025C111.853 24.5421 117.493 32.7874 118.484 37.5236C119.754 43.6806 119.259 51.3877 117.192 57.5662Z" fill="white"/>
<path fill-rule="evenodd" clip-rule="evenodd" d="M126.916 42.8739C126.916 57.3238 120.081 73.1214 111.26 79.8681C107.051 83.0869 101.551 86.9846 96.7617 88.4904C89.7426 90.6971 78.6249 90.4064 78.6249 90.4064C78.6249 90.4064 89.9673 88.8901 94.1705 87.1986C106.224 82.3478 112.803 74.9017 116.866 67.7573C124.886 53.6546 126.916 42.5229 126.916 42.8739Z" fill="#E7EAEE"/>
<path fill-rule="evenodd" clip-rule="evenodd" d="M78.872 79.5895C73.124 78.8576 67.419 76.8124 62.812 73.7769C60.078 71.9901 55.9446 67.7921 53.9424 64.7997C51.0792 60.4941 49.1847 55.8871 48.259 50.9356C47.5917 47.3404 47.6132 41.8077 48.2806 38.6C48.9695 35.3277 49.8521 32.8305 51.4237 29.6659C53.2535 26.0061 55.1911 23.3151 58.0974 20.4088C63.0488 15.4573 68.7968 12.3142 75.6428 10.8072C77.8602 10.3336 85.8901 9.94611 86.17 10.3121C86.2346 10.4197 86.6652 10.6996 87.1172 10.9364C87.5693 11.1947 88.7749 12.0989 89.7652 12.9816C91.2506 14.2733 91.918 15.0913 93.2097 17.115C94.0923 18.4928 94.8028 19.7414 94.8028 19.849C94.8028 20.0858 95.4917 20.5164 95.8792 20.5164C96.4174 20.5164 96.7834 18.9018 96.891 16.0601C96.9556 14.4885 97.0848 13.1969 97.1709 13.1969C97.4723 13.1969 100.788 15.0267 102.338 16.0601C105.373 18.0837 108.409 20.9254 110.647 23.8963C111.659 25.2311 111.81 25.5755 111.81 26.3936C111.81 27.1471 112.025 27.7283 112.693 28.8908C114.372 31.8187 115.685 35.5 116.482 39.5688C116.998 42.3028 116.998 47.4696 116.46 50.3328C114.996 58.2121 110.647 66.0483 104.986 71.0213C100.185 75.2193 95.0826 77.8027 89.0548 79.0728C86.9881 79.5249 80.788 79.8263 78.872 79.5895ZM63.4794 64.8643C63.6731 64.649 63.8023 64.3261 63.7377 64.1754C63.7183 64.1301 63.4488 64.0034 63.0542 63.8179C62.1345 63.3855 60.5354 62.6338 59.8424 61.8504C57.0868 58.7073 56.0749 56.3607 55.4506 51.5169C54.8478 46.8022 55.3542 43.6149 56.4409 38.4924C56.971 35.9935 58.38 33.9294 59.2566 32.6452C59.8526 31.772 60.2025 31.2594 59.8627 31.2159C59.0231 31.0867 58.8939 31.1513 58.0113 31.9909C56.1168 33.7992 55.2557 35.2416 54.3515 38.0188C52.9522 42.3674 52.6818 54.1197 55.4506 59.4177C58.2195 64.7157 62.9842 65.424 63.4794 64.8643ZM94.0924 46.7807C93.7268 50.125 92.1764 54.9614 90.368 57.0711C89.5284 58.0614 86.4465 59.7621 83.845 59.4177C81.3322 59.085 79.3671 57.9107 77.6879 55.3919C76.2456 53.2176 75.5006 50.5783 74.9969 47.2543C74.1272 41.5144 77.9247 34.8326 79.5609 33.1749C81.2185 31.4742 82.4026 30.8714 83.9096 30.8499C85.3735 30.8499 86.3207 31.1728 87.8061 32.2277C90.5187 34.1222 94.8028 40.282 94.0924 46.7807ZM65.0725 28.9769C65.503 28.4818 65.5676 28.245 65.4385 27.3193C65.3523 26.4582 65.1801 26.1137 64.728 25.7477C63.9315 25.1019 62.9412 25.1019 62.2092 25.7908C61.6926 26.2859 61.628 26.4582 61.6926 27.6422C61.7571 28.9124 61.8002 28.9985 62.5106 29.386C63.4579 29.9027 64.3836 29.752 65.0725 28.9769ZM78.506 15.6941C74.631 18.4712 72.9518 19.6122 71.208 20.6886C69.8302 21.5498 69.3996 21.5713 69.3996 20.7963C69.3996 20.3872 69.701 19.9351 70.476 19.2247L71.5524 18.2344L69.4642 17.9546C67.1176 17.6532 64.8357 17.0073 64.3405 16.5122C63.5225 15.6726 64.2329 15.4788 66.5579 15.9094C67.5913 16.0816 69.5934 16.2969 71.0142 16.34L73.5976 16.4476L75.4705 15.0913C79.5824 12.1204 83.845 10.4413 85.8901 10.9579C87.1603 11.2593 87.0096 11.6038 85.5672 11.776C83.9096 11.9698 82.8977 12.5295 78.506 15.6941Z" fill="white"/>
<path d="M84.0384 56.4683C84.0384 56.3607 84.1676 56.253 84.3398 56.253C84.5121 56.253 84.7273 56.3607 84.7919 56.4683C84.8565 56.5975 84.7273 56.6836 84.4905 56.6836C84.2322 56.6836 84.0384 56.5975 84.0384 56.4683Z" fill="white"/>
<path d="M85.33 56.2746C85.33 56.0378 85.8682 55.8225 86.471 55.8225C86.9446 55.844 86.9446 55.844 86.5356 56.1454C86.062 56.5114 85.33 56.576 85.33 56.2746Z" fill="white"/>
<path d="M81.9935 55.7148C81.9289 55.5426 81.8428 55.2412 81.7782 55.069C81.7137 54.8537 81.8213 54.7461 82.1012 54.7461C82.338 54.7461 82.5317 54.8752 82.5317 55.0475C82.5317 55.2197 82.5963 55.4996 82.6609 55.6933C82.747 55.9301 82.6824 56.0378 82.4456 56.0378C82.2519 56.0378 82.0366 55.8871 81.9935 55.7148Z" fill="white"/>
<path d="M83.1343 55.1766C83.0267 54.5308 83.2635 54.3155 84.0385 54.3155C84.2753 54.3155 84.4691 54.5308 84.5552 54.8968C84.7274 55.5211 84.4475 55.8225 83.6941 55.8225C83.3496 55.8225 83.1989 55.6718 83.1343 55.1766Z" fill="white"/>
<path d="M80.9386 55.2843C80.5296 54.9613 80.5296 54.9613 80.9817 54.9613C81.2615 54.9613 81.4553 55.0905 81.4553 55.2843C81.4553 55.6718 81.4553 55.6718 80.9386 55.2843Z" fill="white"/>
<path d="M85.2657 55.2628C84.9858 54.9829 85.115 54.1433 85.4594 54.0141C86.0837 53.7773 86.3636 53.885 86.4928 54.4447C86.5789 54.7676 86.6219 55.0475 86.5789 55.069C86.4066 55.2628 85.3948 55.3919 85.2657 55.2628Z" fill="white"/>
<path d="M87.1817 54.8107C87.1171 54.7461 87.0525 54.4662 87.0525 54.2079C87.0525 53.8419 87.2247 53.6912 87.7414 53.5836C88.1935 53.4975 88.4734 53.5405 88.6025 53.7127C88.8178 54.0572 88.8178 54.4877 88.6241 54.5954C88.2365 54.8107 87.3324 54.9398 87.1817 54.8107Z" fill="white"/>
<path d="M79.9482 54.1433C79.9482 53.8849 80.142 53.6697 80.4218 53.6051C80.9816 53.4544 80.96 53.4329 81.0677 53.9926C81.1107 54.3155 81.0031 54.4447 80.551 54.4877C80.0774 54.5523 79.9482 54.4662 79.9482 54.1433Z" fill="white"/>
<path d="M81.5844 54.1648C81.283 53.8419 81.4767 53.2391 81.8858 53.2391C82.1656 53.2391 82.3163 53.3898 82.3163 53.6481C82.3163 54.0572 81.8212 54.4016 81.5844 54.1648Z" fill="white"/>
<path d="M82.876 53.519C82.7037 53.1099 83.0697 52.8085 83.7801 52.8085C84.1031 52.8085 84.2538 52.9377 84.2538 53.2176C84.2538 53.4544 84.06 53.6697 83.7801 53.7558C83.0697 53.928 83.0267 53.928 82.876 53.519Z" fill="white"/>
<path d="M89.0978 53.4544C89.1624 53.3467 89.27 53.2391 89.3346 53.2391C89.3992 53.2391 89.3777 53.3467 89.3131 53.4544C89.2485 53.5836 89.1409 53.6697 89.0763 53.6697C89.0117 53.6697 89.0332 53.5836 89.0978 53.4544Z" fill="white"/>
<path d="M84.8135 53.0884C84.6413 52.6579 84.8566 52.4426 85.5455 52.3349C85.933 52.2919 86.1052 52.378 86.1483 52.6794C86.299 53.3898 85.0719 53.7773 84.8135 53.0884Z" fill="white"/>
<path d="M79.6468 52.7224C79.453 52.012 79.4961 51.9474 80.0558 51.9474C80.3572 51.9474 80.594 52.0335 80.594 52.1412C80.594 52.2488 80.6586 52.4856 80.7232 52.6578C80.7878 52.8731 80.6586 53.0023 80.2926 53.0669C79.8836 53.153 79.7329 53.0669 79.6468 52.7224Z" fill="white"/>
<path d="M86.8371 52.4856C86.8371 52.0981 86.9878 51.9259 87.3968 51.8183C87.9996 51.6676 88.344 51.969 88.344 52.6579C88.344 52.9377 88.1718 53.0238 87.5906 53.0238C86.9232 53.0238 86.8371 52.9593 86.8371 52.4856Z" fill="white"/>
<path d="M79.0011 52.4856C78.9365 52.3134 78.9795 52.1627 79.0872 52.1627C79.2164 52.1627 79.3025 52.3134 79.3025 52.4856C79.3025 52.6578 79.2594 52.8085 79.2164 52.8085C79.1733 52.8085 79.0872 52.6578 79.0011 52.4856Z" fill="white"/>
<path d="M81.1754 52.6578C80.874 52.378 81.0463 51.7752 81.4338 51.6675C81.6706 51.603 81.9074 51.6245 81.972 51.6891C82.2303 51.9259 82.0796 52.5502 81.7567 52.6794C81.3477 52.8301 81.3477 52.8301 81.1754 52.6578Z" fill="white"/>
<path d="M88.8606 52.5071C88.6238 51.8828 88.8821 51.4092 89.4849 51.3446C89.937 51.28 90.0662 51.3662 90.0662 51.7106C90.0662 52.421 89.8294 52.8085 89.3988 52.8085C89.162 52.8085 88.9252 52.6794 88.8606 52.5071Z" fill="white"/>
<path d="M82.6823 52.2273C82.4239 51.9905 82.5101 51.5599 82.876 51.4308C83.2851 51.2801 84.1462 51.7106 83.9094 51.9474C83.608 52.2058 82.833 52.3995 82.6823 52.2273Z" fill="white"/>
<path d="M84.555 51.6891C84.3612 51.3877 85.0501 50.871 85.6098 50.871C85.8682 50.871 85.9758 51.0002 85.9328 51.237C85.8466 51.6675 84.7487 52.012 84.555 51.6891Z" fill="white"/>
<path d="M78.6564 51.5384C78.6564 51.4307 78.5918 51.1939 78.5273 51.0002C78.4627 50.8064 78.4842 50.6557 78.6134 50.6557C78.8932 50.6557 79.1085 51.4738 78.8502 51.646C78.7425 51.7106 78.6564 51.6675 78.6564 51.5384Z" fill="white"/>
<path d="M79.2377 51.0432C79.1086 50.5696 79.3669 50.2252 79.8621 50.2252C80.1419 50.2252 80.4218 51.0648 80.2496 51.3446C80.0128 51.7106 79.3454 51.4953 79.2377 51.0432Z" fill="white"/>
<path d="M80.7445 51.1509C80.4216 50.8279 80.6153 50.0529 81.0459 49.9453C81.3688 49.8592 81.541 49.9668 81.7133 50.3543C81.8424 50.6342 81.907 50.9141 81.864 50.9571C81.6487 51.1509 80.8737 51.3016 80.7445 51.1509Z" fill="white"/>
<path d="M86.5575 51.1509C86.2776 50.871 86.4068 50.6988 87.0527 50.462C87.5909 50.2897 87.7416 50.3113 87.8492 50.5696C88.0429 51.0863 86.9665 51.5814 86.5575 51.1509Z" fill="white"/>
<path d="M88.4515 50.6557C88.2362 50.3113 88.5376 50.0099 89.0974 50.0099C89.7647 50.0099 89.9585 50.5696 89.3557 50.7418C88.7099 50.9141 88.6022 50.8925 88.4515 50.6557Z" fill="white"/>
<path d="M90.2815 50.1391C90.2815 49.8161 90.669 49.4717 90.8412 49.6439C90.9919 49.7946 90.6905 50.4404 90.4753 50.4404C90.3676 50.4404 90.2815 50.3113 90.2815 50.1391Z" fill="white"/>
<path d="M78.3767 49.8592C78.2906 49.7946 78.226 49.5147 78.2475 49.2779C78.2475 48.8689 78.269 48.8689 78.4628 49.3425C78.6781 49.8592 78.635 50.1175 78.3767 49.8592Z" fill="white"/>
<path d="M78.7857 49.5363C78.5919 48.7828 78.6135 48.7182 79.1732 48.7182C79.7975 48.7182 80.185 49.5147 79.7114 49.8161C79.2163 50.1175 78.9364 50.0314 78.7857 49.5363Z" fill="white"/>
<path d="M86.1913 49.9668C86.1913 49.9023 86.2989 49.5578 86.4281 49.1703C86.7295 48.3092 87.3968 48.2661 87.5475 49.1057C87.6121 49.4286 87.6337 49.7085 87.6121 49.73C87.5045 49.8592 86.1913 50.0529 86.1913 49.9668Z" fill="white"/>
<path d="M80.3143 49.4286C80.2282 49.364 80.1636 49.1057 80.1636 48.8689C80.1636 48.5244 80.2282 48.5029 80.4866 48.7182C80.6588 48.8689 80.8095 49.1272 80.8095 49.2779C80.8095 49.6009 80.5512 49.687 80.3143 49.4286Z" fill="white"/>
<path d="M88.0641 48.9981C87.9349 48.3307 88.2148 48.0293 88.8822 48.1154C89.2051 48.1585 89.3127 48.3522 89.3127 48.8258C89.3127 49.3641 89.2266 49.4932 88.753 49.5363C88.2794 49.6009 88.1717 49.4932 88.0641 48.9981Z" fill="white"/>
<path d="M90.1741 49.0842C89.8942 48.2231 89.9803 47.9647 90.5616 47.9001C91.0783 47.8356 91.1428 47.9001 91.1428 48.4599C91.1428 48.9335 91.0137 49.1272 90.6908 49.2134C90.454 49.2779 90.2171 49.2134 90.1741 49.0842Z" fill="white"/>
<path d="M78.0538 47.8571C78.0538 47.448 78.0969 47.2758 78.1614 47.4911C78.2045 47.6848 78.2045 48.0293 78.1614 48.2446C78.0969 48.4383 78.0538 48.2661 78.0538 47.8571Z" fill="white"/>
<path d="M78.5917 48.1369C78.3119 47.8786 78.441 47.039 78.7855 46.9098C79.2806 46.7161 79.5174 46.9529 79.5174 47.6633C79.5174 48.1154 79.4098 48.2876 79.1299 48.2876C78.9147 48.2876 78.6563 48.223 78.5917 48.1369Z" fill="white"/>
<path d="M79.8834 47.5557C79.7972 47.2328 79.7542 46.8883 79.8403 46.8237C80.0556 46.6085 80.1848 46.9529 80.1202 47.5772L80.0556 48.18L79.8834 47.5557Z" fill="white"/>
<path d="M86.8371 47.405C86.8371 47.1682 86.9447 47.039 87.0524 47.1036C87.1815 47.1682 87.2676 47.3835 87.2676 47.5557C87.2676 47.7279 87.1815 47.8571 87.0524 47.8571C86.9447 47.8571 86.8371 47.6633 86.8371 47.405Z" fill="white"/>
<path d="M87.8059 47.6849C87.5045 47.3619 87.7413 46.7807 88.2365 46.6515C88.8608 46.5008 88.8823 46.5008 89.0761 47.1251C89.2053 47.5126 89.1191 47.5988 88.5594 47.6849C88.215 47.7494 87.8705 47.7279 87.8059 47.6849Z" fill="white"/>
<path d="M89.7864 47.2758C89.5496 47.0605 89.6142 46.3501 89.851 46.3501C89.9802 46.3501 90.0663 46.264 90.0663 46.1348C90.0663 46.0272 89.9371 45.9195 89.7649 45.9195C89.3989 45.9195 89.0975 44.8647 89.3989 44.5633C89.7864 44.1758 90.217 44.5848 90.4753 45.6397C90.626 46.1994 90.7767 46.8452 90.8413 47.0605C90.9274 47.3404 90.8413 47.4265 90.4323 47.4265C90.1524 47.4265 89.851 47.3619 89.7864 47.2758Z" fill="white"/>
<path d="M90.9489 46.1348C90.7982 45.489 90.4106 44.1973 90.1308 43.2501C89.7002 41.8723 89.6572 41.5278 89.894 41.3771C90.0447 41.2695 90.2384 41.1834 90.303 41.1834C90.5398 41.1834 91.4009 45.5966 91.3148 46.4577L91.2502 47.3189L90.9489 46.1348Z" fill="white"/>
<path d="M77.8384 46.0272C77.8384 45.6827 77.8814 45.5536 77.946 45.7688C77.9891 45.9626 77.9891 46.264 77.946 46.4147C77.8814 46.5439 77.8384 46.3932 77.8384 46.0272Z" fill="white"/>
<path d="M78.2691 45.9841C78.3552 45.2306 78.9795 45.0584 79.1518 45.7473C79.3025 46.307 79.3455 46.2425 78.6997 46.4577C78.2476 46.5869 78.2045 46.5439 78.2691 45.9841Z" fill="white"/>
<path d="M87.3537 45.7904C87.1814 45.1661 87.5474 44.8001 88.2363 44.8862C88.753 44.9508 88.9467 45.8765 88.5162 46.1564C87.978 46.5008 87.4828 46.3501 87.3537 45.7904Z" fill="white"/>
<path d="M79.5174 45.6182C79.5174 45.2522 79.625 45.0584 79.8618 45.0584C80.0771 45.0584 80.1632 45.2091 80.1201 45.5321C80.0125 46.221 79.5174 46.2855 79.5174 45.6182Z" fill="white"/>
<path d="M77.6018 44.714C77.6018 44.4772 77.6664 44.4126 77.7309 44.5848C77.7955 44.7355 77.774 44.9293 77.7094 44.9938C77.6448 45.0799 77.5802 44.9508 77.6018 44.714Z" fill="white"/>
<path d="M78.0108 44.6494C78.0108 44.3265 78.14 44.1973 78.4629 44.1973C78.7643 44.1973 78.8719 44.3049 78.8289 44.5633C78.7212 45.123 78.0108 45.1876 78.0108 44.6494Z" fill="white"/>
<path d="M79.1946 44.4557C79.0439 44.0681 79.0439 44.0681 79.6897 43.8959C80.0772 43.7668 80.1633 43.8313 80.1633 44.1543C80.1633 44.6709 79.3883 44.9293 79.1946 44.4557Z" fill="white"/>
<path d="M86.9878 44.1542C86.8371 43.616 87.1169 43.3362 87.8704 43.3362C88.2364 43.3362 88.344 43.4653 88.344 43.8744C88.344 44.1973 88.2149 44.4126 88.0427 44.4126C87.8704 44.4126 87.5906 44.4772 87.4183 44.5417C87.2246 44.6063 87.0739 44.4772 86.9878 44.1542Z" fill="white"/>
<path d="M88.861 43.6591C88.6888 43.2285 88.9471 42.9056 89.4423 42.9056C89.7437 42.9056 89.8513 43.0563 89.8513 43.4438C89.8513 43.8313 89.7437 43.982 89.4208 43.982C89.1839 43.982 88.9256 43.8313 88.861 43.6591Z" fill="white"/>
<path d="M77.7954 43.3577C77.7954 42.9056 78.2905 42.3889 78.5058 42.6257C78.5919 42.6903 78.6565 42.9917 78.6565 43.2716C78.6565 43.616 78.5273 43.7667 78.226 43.7667C77.9461 43.7667 77.7954 43.616 77.7954 43.3577Z" fill="white"/>
<path d="M78.9796 43.0994C78.8074 42.5612 79.0011 42.3244 79.7331 42.2167C80.4005 42.1306 80.6157 42.841 80.0345 43.2716C79.4748 43.6806 79.1303 43.616 78.9796 43.0994Z" fill="white"/>
<path d="M86.7726 42.9702C86.6219 42.841 86.5573 42.0445 86.6865 42.0445C86.708 42.0445 87.031 41.9584 87.4185 41.8507C88.0643 41.657 88.1074 41.6785 88.0858 42.2598C88.0643 42.6903 87.9351 42.9056 87.6122 42.9917C87.031 43.1424 86.9448 43.1424 86.7726 42.9702Z" fill="white"/>
<path d="M85.9758 42.475C85.9758 42.3243 86.0404 42.2598 86.1265 42.3243C86.1911 42.4105 86.1911 42.5396 86.1265 42.6257C86.0404 42.6903 85.9758 42.6257 85.9758 42.475Z" fill="white"/>
<path d="M88.387 42.1306C88.4516 41.7646 89.1189 41.2264 89.2696 41.3986C89.3342 41.4632 89.4419 41.7216 89.5064 42.0014C89.6571 42.432 89.5926 42.475 88.9898 42.475C88.4731 42.475 88.3224 42.3889 88.387 42.1306Z" fill="white"/>
<path d="M78.0108 42.1091C78.0108 42.0014 78.1185 41.7862 78.2261 41.6139C78.3983 41.3556 78.4414 41.3771 78.4414 41.7862C78.4414 42.0445 78.3553 42.2598 78.2261 42.2598C78.1185 42.2598 78.0108 42.1952 78.0108 42.1091Z" fill="white"/>
<path d="M78.6566 41.6354C78.6566 41.0327 79.1087 40.8389 79.4532 41.291C79.6684 41.6139 79.6684 41.7216 79.4532 41.8723C79.0011 42.1521 78.6566 42.066 78.6566 41.6354Z" fill="white"/>
<path d="M85.2009 41.3556C84.8134 40.925 84.8134 40.9035 85.1793 41.0327C85.3946 41.1188 85.6745 41.1834 85.7821 41.1834C85.8898 41.1834 85.9759 41.3341 85.9759 41.5063C85.9759 41.9584 85.6745 41.9153 85.2009 41.3556Z" fill="white"/>
<path d="M80.5726 41.3341C79.6469 40.6236 79.5177 39.0306 80.3788 39.0306C80.9601 39.0306 81.4983 39.9347 81.4122 40.7743C81.3476 41.5494 81.0893 41.7216 80.5726 41.3341Z" fill="white"/>
<path d="M86.4712 41.4632C86.5573 41.3986 86.6865 41.3986 86.7726 41.4632C86.8372 41.5493 86.7726 41.6139 86.6219 41.6139C86.4712 41.6139 86.4066 41.5493 86.4712 41.4632Z" fill="white"/>
<path d="M89.7219 40.6236C89.7865 40.4299 89.8511 40.2361 89.8511 40.1931C89.8511 40.15 89.9588 40.107 90.0664 40.107C90.1956 40.107 90.2817 40.3007 90.2817 40.5375C90.2817 40.7958 90.131 40.9681 89.9372 40.9681C89.7004 40.9681 89.6358 40.8604 89.7219 40.6236Z" fill="white"/>
<path d="M78.4412 40.5591C78.4412 40.0639 78.8933 39.2458 79.1516 39.2458C79.6037 39.2458 79.2808 40.6236 78.8072 40.7098C78.6134 40.7528 78.4412 40.6882 78.4412 40.5591Z" fill="white"/>
<path d="M83.2852 40.3222L82.6394 40.1715L83.2206 40.0208C83.8234 39.8486 84.254 39.9778 84.254 40.3438C84.254 40.559 84.2325 40.559 83.2852 40.3222Z" fill="white"/>
<path d="M82.5314 39.2889C82.5314 38.4062 83.0266 38.2771 83.4787 39.0521C83.78 39.5687 83.8016 39.6764 83.5217 39.6764C83.3495 39.6764 83.0696 39.741 82.8759 39.8056C82.6175 39.9132 82.5314 39.784 82.5314 39.2889Z" fill="white"/>
<path d="M86.2773 39.5903C85.3086 39.1597 84.6842 38.0187 84.6842 36.6624C84.6842 35.6937 84.7704 35.4569 85.3516 34.9187C85.7176 34.5742 86.0836 34.2944 86.1912 34.2944C86.6648 34.2944 88.4086 35.952 88.9899 36.9854L89.6572 38.1694L88.9468 38.9229C88.1287 39.784 87.2246 40.0208 86.2773 39.5903Z" fill="white"/>
<path d="M81.7782 39.0305C81.7136 38.9229 81.7567 38.8153 81.8643 38.8153C81.9935 38.8153 82.1011 38.9229 82.1011 39.0305C82.1011 39.1597 82.0581 39.2458 82.015 39.2458C81.9504 39.2458 81.8428 39.1597 81.7782 39.0305Z" fill="white"/>
<path d="M78.958 38.6861C79.0225 38.4924 79.0871 38.2986 79.0871 38.2555C79.0871 38.2125 79.2809 38.1694 79.5177 38.1694C80.0559 38.1694 80.0774 38.5139 79.5392 38.8153C78.958 39.1167 78.8073 39.0951 78.958 38.6861Z" fill="white"/>
<path d="M80.6587 38.4278C80.1635 38.3632 80.0128 38.0833 80.3358 37.8896C80.4219 37.825 80.8094 37.7173 81.1969 37.6312C81.7781 37.5021 81.8858 37.5451 81.8858 37.9111C81.8858 38.3632 81.4337 38.5569 80.6587 38.4278Z" fill="white"/>
<path d="M82.3165 37.6958C82.3165 37.4375 82.338 37.2868 82.3811 37.3298C82.4026 37.3729 82.5748 37.5882 82.7255 37.8035C82.9838 38.1049 82.9623 38.1694 82.6609 38.1694C82.4456 38.1694 82.3165 37.9972 82.3165 37.6958Z" fill="white"/>
<path d="M79.3024 37.5451C79.3024 37.416 79.4101 37.2653 79.5177 37.2007C79.6469 37.1361 79.733 37.2222 79.733 37.3944C79.733 37.5882 79.6469 37.7389 79.5177 37.7389C79.4101 37.7389 79.3024 37.6528 79.3024 37.5451Z" fill="white"/>
<path d="M80.099 37.2222C79.9268 36.7916 81.4553 36.318 81.7136 36.727C81.9073 37.0715 81.7136 37.2222 80.8955 37.3944C80.4004 37.502 80.1851 37.459 80.099 37.2222Z" fill="white"/>
<path d="M82.1224 36.5333C82.1224 36.2965 82.1869 36.2319 82.2515 36.4041C82.3161 36.5548 82.2946 36.7486 82.23 36.8132C82.1654 36.8993 82.1008 36.7701 82.1224 36.5333Z" fill="white"/>
<path d="M80.2928 36.1888C80.5511 35.7152 81.3046 34.9402 81.4983 34.9402C81.7136 34.9402 81.7352 35.952 81.5199 36.0812C81.4122 36.1243 81.0678 36.2319 80.7449 36.318C80.2712 36.4257 80.1636 36.4041 80.2928 36.1888Z" fill="white"/>
<path d="M82.015 35.6937C81.7782 35.0479 81.8858 34.768 82.4025 34.6819C82.9407 34.5743 82.9407 34.5743 82.5962 35.2416C82.1657 36.1027 82.1872 36.1027 82.015 35.6937Z" fill="white"/>
<path d="M81.8856 34.402C81.8856 34.359 82.3162 34.0576 82.8544 33.7562C83.5002 33.3687 83.9523 33.2395 84.2752 33.3256C84.6627 33.4548 84.5551 33.5409 83.6079 33.993C82.553 34.4666 81.8856 34.6388 81.8856 34.402Z" fill="white"/>
<path d="M93.8338 15.3281C93.2525 14.4885 92.0254 13.1322 91.1428 12.3142C90.2601 11.4961 89.6789 10.8287 89.8511 10.8287C90.3247 10.8287 93.9414 11.819 94.8456 12.2065C95.5991 12.5295 95.6206 12.5725 95.4269 13.2399C95.3192 13.6274 95.2331 14.5962 95.2331 15.3927C95.2331 16.2108 95.1685 16.8566 95.0824 16.8566C94.9748 16.8566 94.4366 16.1677 93.8338 15.3281Z" fill="white"/>
<path d="M50.024 80.5367C49.1414 80.0846 48.9476 79.8263 47.8282 77.6089C46.2136 74.4658 46.1705 73.7339 47.699 75.5207C48.3018 76.2311 49.7011 77.695 50.799 78.7714C52.672 80.5798 52.7581 80.709 52.1338 80.6228C51.6817 80.5583 51.5095 80.6013 51.6171 80.7735C51.8754 81.161 51.0574 81.0534 50.024 80.5367Z" fill="white"/>
<path fill-rule="evenodd" clip-rule="evenodd" d="M86.1023 119.759C85.9236 119.335 86.1228 118.846 86.5472 118.667L87.011 118.47C91.5205 116.541 94.1089 115.382 95.8676 113.541C97.6264 111.701 97.8368 108.998 98.1672 107.353C98.2579 106.901 99.2801 107.694 99.7315 107.785C100.183 107.875 100.475 108.315 100.385 108.766C99.9875 110.744 98.9176 112.63 97.1953 114.419C95.4788 116.203 92.1554 118.115 87.1942 120.204C86.7698 120.383 86.281 120.183 86.1023 119.759Z" fill="#00160A"/>
<path fill-rule="evenodd" clip-rule="evenodd" d="M106.495 33.8619C106.891 33.6264 107.402 33.7562 107.638 34.1518C109.996 38.1134 111.259 42.6419 111.259 47.3534C111.259 61.6272 99.6882 73.1984 85.4144 73.1984C81.6215 73.1984 77.9427 72.3803 74.574 70.8217C74.1561 70.6284 72.5776 69.0889 74.1675 69.715C75.7573 70.3411 81.9088 71.7465 85.4587 71.7465C98.8116 71.7465 108.258 60.7063 108.258 47.3534C108.258 42.9442 106.495 39.0306 106.205 35.0047C106.171 34.5381 106.099 34.0974 106.495 33.8619Z" fill="#00160A"/>
<path fill-rule="evenodd" clip-rule="evenodd" d="M23.9265 96.961C24.2212 96.6072 24.7469 95.8923 25.1007 96.187C26.5521 97.3959 28.1009 98.7965 29.7576 99.0669C31.4816 99.3482 33.5268 99.3482 35.8906 99.062C36.3477 99.0067 36.7631 99.3324 36.8185 99.7895C36.8738 100.247 36.5481 100.662 36.091 100.717C33.5808 101.021 31.381 101.021 29.489 100.713C27.5298 100.393 25.7078 99.5297 24.0335 98.1352C23.6797 97.8405 23.6318 97.3148 23.9265 96.961Z" fill="#00160A"/>
<path d="M41.6278 67.7921C40.5514 66.931 38.2479 64.3907 36.5041 62.1517C35.5999 60.9677 34.5881 58.5565 33.9853 56.1239C33.7055 55.0259 33.4256 54.0356 33.361 53.9065C33.2749 53.7988 32.9304 52.2703 32.586 50.505C32.0693 48.0078 32.1786 47.2033 31.7249 44.2162C31.5328 42.9515 31.3589 41.9451 31.3589 41.9451L31.9186 41.2264C32.2415 40.7959 32.65 40.0834 32.8013 39.6764C33.4902 37.8228 38.5493 32.0124 38.7 32.1631C38.743 32.2061 38.5708 33.218 38.2694 34.402C37.9895 35.5861 37.6451 37.3729 37.4944 38.3847C37.2791 40.0639 37.193 40.2577 36.5256 40.8174C35.686 41.5278 34.093 43.8098 34.093 44.2834C34.093 44.9293 35.0617 44.4987 36.0735 43.4438L37.1069 42.3674V43.5515C37.1069 44.3265 36.9562 45.0369 36.6763 45.5966C36.1381 46.6515 36.1381 47.771 36.6548 48.6321C36.9131 49.0626 37.1499 50.096 37.3006 51.3231C37.968 56.8773 39.3889 61.6996 41.8215 66.5435C42.4243 67.749 42.8979 68.7393 42.8764 68.7393C42.8334 68.7393 42.2736 68.3088 41.6278 67.7921Z" fill="white"/>
<path fill-rule="evenodd" clip-rule="evenodd" d="M131.207 81.0749L132.757 81.7638C133.078 81.9122 136.624 83.6158 140.883 85.6623C147.749 88.9617 156.471 93.1522 156.524 93.1522C156.61 93.1522 157.014 92.2181 157.105 91.1286C157.32 88.782 158.117 85.5958 159.043 83.3784C159.473 82.3881 159.818 81.1505 159.818 81.0428C159.818 80.9937 159.468 80.8525 158.895 80.6214C158.213 80.3463 157.214 79.9437 156.115 79.4173C150.69 76.8124 140.076 71.4949 138.763 70.6984C137.471 69.9449 137.213 69.8803 137.213 70.3755C137.213 71.0213 135.9 74.0137 134.888 75.6283C134.35 76.511 133.295 78.1041 132.541 79.1589L131.207 81.0749ZM156.158 89.2771C156.775 89.6349 155.706 90.1598 155.447 90.2459C153.926 90.3751 152.135 90.089 150.668 89.2341C149.901 88.69 143.86 85.334 139.853 83.1077C138.021 82.09 136.614 81.3084 136.33 81.1395C135.426 80.6013 134.565 80.0201 134.414 79.8478C133.962 79.2666 134.393 79.0082 135.663 79.1159C136.427 79.1806 154.824 88.5043 156.158 89.2771Z" fill="white"/>
<path d="M115.749 83.0125C115.189 82.8187 114.587 82.3882 114.199 81.893L113.553 81.0965L115.835 78.836C119.344 75.3915 121.928 71.6271 124.253 67.4291C125.028 66.0298 127.331 60.3864 127.611 59.7621C128.042 58.8579 128.365 58.5135 129.29 57.9968C130.388 57.351 131.637 57.1357 132.175 57.5017C133.208 58.1906 133.208 60.3649 132.175 64.1108C131.034 68.2227 129.506 71.172 126.341 75.413C125.846 76.0589 124.92 77.329 124.253 78.2117C122.466 80.5798 121.303 81.7208 119.732 82.6034C118.182 83.4646 117.278 83.5722 115.749 83.0125Z" fill="white"/>
<path d="M123.865 82.5173L123.413 82.0652C123.413 82.0652 130.917 72.5319 132.261 69.0192C133.287 66.3385 133.891 65.5783 134.706 65.5783C135.161 65.5783 135.533 65.6823 135.706 65.9407C136.007 66.3928 136.298 66.9525 135.91 68.8685C135.264 71.9685 134.274 74.0137 131.303 78.427C130.614 79.4388 129.731 80.5583 129.344 80.9458C128.44 81.7854 126.406 82.6465 125.222 82.8402C124.468 82.9479 124.253 82.9048 123.865 82.5173Z" fill="white"/>
<path fill-rule="evenodd" clip-rule="evenodd" d="M136.47 72.5486C136.904 71.5553 137.213 70.6889 137.213 70.3755C137.213 69.8803 137.471 69.9449 138.763 70.6984C140.076 71.4949 150.69 76.8124 156.115 79.4173C158.138 80.386 159.818 80.9352 159.818 81.0428C159.818 81.1505 136.009 73.6017 136.47 72.5486Z" fill="#E7EAEE"/>
<path fill-rule="evenodd" clip-rule="evenodd" d="M62.8115 73.7769C60.0775 71.9901 55.9441 67.7921 53.942 64.7997C51.0787 60.4941 49.1842 55.887 48.2585 50.9356C47.5912 47.3404 47.6127 41.8077 48.2801 38.6C48.969 35.3277 49.8516 32.8305 51.4232 29.6658C53.2531 26.006 55.1906 23.315 58.0969 20.4087C60.9469 17.5587 48.2801 29.3447 51.4232 50.4323C53.942 68.1037 64.7668 75.0652 62.8115 73.7769Z" fill="#E7EAEE"/>
</svg>
