<svg width="14" height="14" viewBox="0 0 14 14" fill="none" xmlns="http://www.w3.org/2000/svg">
<path d="M6.99991 0C8.90179 0 9.13909 0.00699987 9.88528 0.0419994C10.6308 0.076999 11.1383 0.193898 11.5849 0.367496C12.0469 0.545293 12.436 0.78609 12.8252 1.17459C13.1812 1.52451 13.4566 1.94779 13.6323 2.41497C13.8052 2.86086 13.9228 3.36906 13.9578 4.11455C13.9907 4.86074 13.9998 5.09804 13.9998 6.99991C13.9998 8.90179 13.9928 9.13909 13.9578 9.88528C13.9228 10.6308 13.8052 11.1383 13.6323 11.5849C13.4571 12.0523 13.1816 12.4757 12.8252 12.8252C12.4752 13.1811 12.052 13.4565 11.5849 13.6323C11.139 13.8052 10.6308 13.9228 9.88528 13.9578C9.13909 13.9907 8.90179 13.9998 6.99991 13.9998C5.09804 13.9998 4.86074 13.9928 4.11455 13.9578C3.36906 13.9228 2.86156 13.8052 2.41497 13.6323C1.9476 13.457 1.52425 13.1815 1.17459 12.8252C0.818574 12.4754 0.543145 12.0521 0.367496 11.5849C0.193898 11.139 0.076999 10.6308 0.0419994 9.88528C0.00909985 9.13909 0 8.90179 0 6.99991C0 5.09804 0.00699987 4.86074 0.0419994 4.11455C0.076999 3.36836 0.193898 2.86156 0.367496 2.41497C0.542659 1.9475 0.818153 1.52411 1.17459 1.17459C1.52435 0.818452 1.94768 0.543004 2.41497 0.367496C2.86156 0.193898 3.36836 0.076999 4.11455 0.0419994C4.86074 0.00909985 5.09804 0 6.99991 0ZM6.99991 3.49996C6.07167 3.49996 5.18144 3.8687 4.52507 4.52507C3.8687 5.18144 3.49996 6.07167 3.49996 6.99991C3.49996 7.92816 3.8687 8.81839 4.52507 9.47476C5.18144 10.1311 6.07167 10.4999 6.99991 10.4999C7.92816 10.4999 8.81839 10.1311 9.47476 9.47476C10.1311 8.81839 10.4999 7.92816 10.4999 6.99991C10.4999 6.07167 10.1311 5.18144 9.47476 4.52507C8.81839 3.8687 7.92816 3.49996 6.99991 3.49996ZM11.5499 3.32496C11.5499 3.0929 11.4577 2.87034 11.2936 2.70625C11.1295 2.54216 10.9069 2.44997 10.6749 2.44997C10.4428 2.44997 10.2203 2.54216 10.0562 2.70625C9.89206 2.87034 9.79988 3.0929 9.79988 3.32496C9.79988 3.55702 9.89206 3.77958 10.0562 3.94367C10.2203 4.10776 10.4428 4.19995 10.6749 4.19995C10.9069 4.19995 11.1295 4.10776 11.2936 3.94367C11.4577 3.77958 11.5499 3.55702 11.5499 3.32496ZM6.99991 4.89994C7.55686 4.89994 8.091 5.12119 8.48482 5.51501C8.87864 5.90883 9.09989 6.44297 9.09989 6.99991C9.09989 7.55686 8.87864 8.091 8.48482 8.48482C8.091 8.87864 7.55686 9.09989 6.99991 9.09989C6.44297 9.09989 5.90883 8.87864 5.51501 8.48482C5.12119 8.091 4.89994 7.55686 4.89994 6.99991C4.89994 6.44297 5.12119 5.90883 5.51501 5.51501C5.90883 5.12119 6.44297 4.89994 6.99991 4.89994Z" fill="white"/>
</svg>
